<?xml version="1.0" encoding="utf-8"?>
<!-- Generator: Adobe Illustrator 19.2.1, SVG Export Plug-In . SVG Version: 6.00 Build 0)  -->
<svg version="1.1" id="layer" xmlns="http://www.w3.org/2000/svg" xmlns:xlink="http://www.w3.org/1999/xlink" x="0px" y="0px"
	 viewBox="0 0 652 652" style="enable-background:new 0 0 652 652;" xml:space="preserve">
<style type="text/css">
	.st0{fill:#ffffff;}
</style>
<path class="st0" d="M47.2,329.1c31.1,0,61.3,25.7,61.3,56.8c-4.3,0.9-8.6,1.3-13,1.4c-32.8,0-60.1-26.4-61.4-58.2L47.2,329.1z
	 M95.5,264.4c4.4,0,8.7,0.5,13,1.4c0,31.2-30.2,56.9-61.3,56.9h-13C36.3,290.6,62.7,264.4,95.5,264.4 M115,267.5
	c25.1,8.4,42,31.9,42,58.3c0.1,26.8-17.2,49.9-42,58.3V267.5z M26.7,394.7h137.7V257H26.7V394.7z M210.5,317.7V309h28.7v-11.1h-28.7
	v-16.1H241v-11h-42.2v46.4c0,11.7,5,19.7,16.7,21.4c0.2,0.1,0.5,0.1,0.7,0.1h0.2c1.2,0.1,2.5,0.2,3.7,0.2h21.7v-11.1h-21.6
	C216.5,327.9,210.5,326.1,210.5,317.7 M250.2,303v36h11.7v-36.2v-32h-11.7V303z M281.6,308.9c0.5-6,6.6-10.8,13.9-10.8
	c6.9,0,12.5,4.9,12.5,10.8H281.6z M295.5,288.1c-14.8,0-25.9,10.2-25.9,26.1v0.4c0,15.6,10.7,25.5,26.2,25.5
	c7.5,0,14.4-2.1,20.8-8.8l-7.1-6.9c-3.7,3.7-7.4,5.7-13.4,5.7c-8.7,0-14.6-5.1-14.9-13h38.5c0.2-1.9,0.2-4.1,0.2-4.1
	C320,299.2,310.3,288.1,295.5,288.1 M353,298.6c4.8-0.1,9.4,1.9,12.6,5.4l7.3-7.6c-5.1-5.6-12.3-8.7-19.9-8.5
	c-14.9,0-26.9,11.1-26.9,26.2s12,26.2,26.9,26.2c7.5,0.2,14.8-3,19.8-8.5l-7.2-7.6c-3.2,3.5-7.8,5.5-12.6,5.4
	c-8.6,0-15.2-6.6-15.2-15.6C337.7,305.1,344.3,298.5,353,298.6 M391.8,317.7L391.8,317.7v-17.4h10.7v-10.7h-10.7v-18.8h-11.7v47.6
	l0,0c0.3,11.1,5.4,18.6,16.7,20.2c0.2,0.1,0.5,0.1,0.7,0.1h0.2c1.2,0.1,2.5,0.2,3.7,0.2h1.2v-11h-1.2
	C397.8,327.9,391.8,326.1,391.8,317.7 M424.1,297v-7.3h-11.7v49.3h11.7V313c0-8.1,5.2-13.2,13.3-13.2c1.6,0,3.3,0.2,4.9,0.5V289
	c-1.2-0.2-2.3-0.3-3.5-0.3C431.6,288.7,426.4,291.9,424.1,297 M471,329.7c-8.5,0.1-15.5-6.7-15.6-15.3c-0.1-8.5,6.7-15.5,15.3-15.6
	c8.5-0.1,15.5,6.7,15.6,15.3c0,0.1,0,0.1,0,0.2c0.2,8.3-6.4,15.2-14.7,15.5C471.3,329.7,471.1,329.8,471,329.7 M471,288.2
	c-15,0-26.9,11.3-26.9,26.1c0,14.8,11.9,26.1,26.9,26.1s26.9-11.4,26.9-26.1C497.8,299.5,485.8,288.2,471,288.2 M505.1,301.8v37.1
	h11.7v-36.7v-31.5h-11.7V301.8z M559.1,318.3c0,7.8-4.6,11.2-10.8,11.2c-6.2,0-10.8-3.3-10.8-11v-28.8h-11.8v29.8
	c0,14.1,10.3,20.8,22.5,20.8s22.7-6.8,22.7-21.1v-29.5h-11.8V318.3z M615.4,323.2l-7.4-10.4l9.2-12.5l7.9-10.7h-12.8l-10.7,14.8
	l-10.8-14.8h-12.7l7.3,10l9.7,13.3l-10.2,14.2l-8.5,11.8H589l12.5-17.4l12.5,17.4h12.6L615.4,323.2z M612.7,381v-23.7h4.9v19.2h9.1
	v4.5H612.7z M497.2,381.4c-6.8-0.1-12.1-5.7-12-12.5c0.1-6.8,5.7-12.1,12.5-12c6.7,0.1,12,5.6,12,12.3c0,6.8-5.5,12.2-12.2,12.2
	C497.4,381.4,497.3,381.4,497.2,381.4z M497.2,361.4c-4.2,0-7.7,3.4-7.7,7.6c0,0,0,0.1,0,0.1c0,4.2,3.4,7.7,7.7,7.7
	c4.2,0,7.7-3.4,7.7-7.7c0.1-4.2-3.3-7.7-7.5-7.8C497.3,361.4,497.2,361.4,497.2,361.4z M459.5,357.3h4.9V381h-4.9V357.3z M431,381.4
	c-4.3,0-7.6-1.9-9.1-5.4l-0.1-0.3l3.7-2.3l0.2,0.4c1,2.1,3.1,3.3,5.4,3.3c3.2,0,3.5-2,3.5-2.6c0-1.8-1.7-2.5-4.4-3.6
	c-3.6-1.4-6.8-2.9-6.8-7.3c0-3.8,3.1-6.6,7.5-6.6c3-0.1,5.8,1.4,7.4,3.9l0.2,0.3l-3.5,2.4l-0.2-0.3c-0.8-1.3-2.3-2-3.8-1.9
	c-1.6,0-2.7,0.9-2.7,2.1c0,1.5,0.9,1.9,3.6,2.9l1.4,0.6c3.9,1.6,6.3,3.3,6.3,7.3C439.4,378.6,436.1,381.4,431,381.4z M395.2,381.4
	c-4.3,0-7.6-1.9-9.1-5.4l-0.1-0.3l3.7-2.3l0.2,0.4c1,2.1,3.1,3.3,5.4,3.3c3.2,0,3.5-2,3.5-2.6c0-1.8-1.7-2.5-4.4-3.6
	c-3.6-1.4-6.8-2.9-6.8-7.3c0-3.8,3.1-6.6,7.5-6.6c3-0.1,5.8,1.4,7.4,3.9l0.2,0.3l-3.5,2.4l-0.2-0.3c-0.8-1.3-2.3-2-3.8-1.9
	c-1.6,0-2.7,0.9-2.7,2.1c0,1.5,0.9,1.9,3.6,2.9l1.4,0.6c3.9,1.6,6.3,3.3,6.3,7.3C403.6,378.6,400.4,381.4,395.2,381.4z M359.6,381
	c-5,0-7.6-2.7-7.6-7.7v-16h15v4.5h-10.1v4.7h9.5v4.5h-9.5v2.5c-0.2,1.5,0.9,2.9,2.4,3.1c0.2,0,0.3,0,0.5,0h7.4v4.5L359.6,381z
	 M317.3,381v-23.7H332v4.5h-9.8v5h8.9v4.5h-8.9v9.7H317.3z M284.7,381.4c-6.8-0.1-12.1-5.7-12-12.5c0.1-6.8,5.7-12.1,12.5-12
	c6.7,0.1,12,5.6,12,12.3c0,6.8-5.5,12.2-12.2,12.2C284.9,381.4,284.8,381.4,284.7,381.4z M284.7,361.4c-4.3-0.1-7.8,3.4-7.9,7.7
	c-0.1,4.3,3.4,7.8,7.7,7.9c4.3,0.1,7.8-3.4,7.9-7.7c0,0,0-0.1,0-0.1c0.1-4.2-3.3-7.7-7.5-7.8C284.8,361.4,284.8,361.4,284.7,361.4z
	 M249,381l-4.9-8.1h-3.5v8.1h-4.9v-23.6h9.3c4.2-0.1,7.7,3.3,7.8,7.5c0,0,0,0.1,0,0.1c0,2.8-1.5,5.4-4,6.7l5.7,9.3L249,381z
	 M244.6,368.3c1.8,0.1,3.3-1.2,3.4-3c0-0.1,0-0.3,0-0.4c0.1-1.7-1.2-3.1-2.9-3.2c-0.1,0-0.1,0-0.2,0h-4.3v6.6L244.6,368.3z
	 M198.8,381v-23.6h9.1c4.3,0,7.8,3.5,7.8,7.8c0,4.3-3.5,7.8-7.8,7.8h-4.2v8L198.8,381z M207.7,368.5c1.8-0.1,3.3-1.7,3.2-3.5
	c-0.1-1.7-1.5-3.1-3.2-3.2h-4.1v6.7H207.7z M588.2,381l-2.3-5.1h-8.7l-2.3,5.1h-5.2l10.7-23.7h2.5l10.7,23.7H588.2z M583.7,371
	l-2.2-4.9l-2.2,4.9H583.7z M545.6,381l-10.8-14.9V381h-4.9v-23.7h4.7l10.8,15.3v-15.3h4.9V381H545.6z"/>
</svg>
